<svg width="21" height="21" viewBox="0 0 21 21" fill="none" xmlns="http://www.w3.org/2000/svg">
<path d="M14.1717 5.00158C13.2961 5.0015 12.5175 5.00144 11.8889 5.08598C11.2057 5.17787 10.5158 5.38975 9.9519 5.95378C9.388 6.51781 9.1762 7.20793 9.0844 7.89139C8.9999 8.52019 8.9999 9.29909 9 10.1749V11.0035H8.25C7.55964 11.0035 7 11.5633 7 12.2539C7 12.9444 7.55964 13.5043 8.25 13.5043H9V19.5017C9 19.976 9 20.2131 8.8513 20.36C8.7026 20.5069 8.4673 20.5039 7.9967 20.4979C6.80726 20.4829 5.79575 20.4412 4.93802 20.3258C3.56137 20.1407 2.46911 19.7535 1.61091 18.895C0.75272 18.0366 0.36568 16.944 0.18059 15.5669C-1.98185e-05 14.223 -9.85119e-06 12.5018 1.4881e-07 10.3104V10.196C-9.85119e-06 8.00465 -1.98185e-05 6.28341 0.18059 4.93958C0.36568 3.56249 0.75272 2.46989 1.61091 1.61142C2.46911 0.75295 3.56137 0.36579 4.93802 0.18065C6.28143 -1.98483e-05 8.00214 -9.85121e-06 10.1928 1.4879e-07H10.3072C12.4979 -9.85121e-06 14.2186 -1.98483e-05 15.562 0.18065C16.9386 0.36579 18.0309 0.75295 18.8891 1.61142C19.7473 2.46989 20.1343 3.56248 20.3194 4.93958C20.5 6.28341 20.5 8.00466 20.5 10.196V10.3105C20.5 12.5018 20.5 14.223 20.3194 15.5669C20.1343 16.944 19.7473 18.0366 18.8891 18.895C18.0309 19.7535 16.9386 20.1407 15.562 20.3258C14.7043 20.4412 13.6927 20.4829 12.5033 20.4979C12.0327 20.5039 11.7974 20.5069 11.6487 20.36C11.5 20.2131 11.5 19.976 11.5 19.5017V13.5043H13.25C13.9404 13.5043 14.5 12.9444 14.5 12.2539C14.5 11.5633 13.9404 11.0035 13.25 11.0035H11.5V10.2532C11.5 9.27479 11.5027 8.66669 11.5621 8.22461C11.6157 7.82557 11.6949 7.74675 11.7185 7.72331L11.7197 7.72211L11.7209 7.7209C11.7443 7.69734 11.8231 7.61811 12.222 7.56446C12.664 7.50502 13.2719 7.50237 14.25 7.50237H15.25C15.9404 7.50237 16.5 6.94255 16.5 6.25197C16.5 5.5614 15.9404 5.00158 15.25 5.00158H14.1717Z" fill="white"/>
</svg>
