<svg width="21" height="21" viewBox="0 0 21 21" fill="none" xmlns="http://www.w3.org/2000/svg">
<path fill-rule="evenodd" clip-rule="evenodd" d="M10.3072 1.4881e-07C12.4979 -9.85119e-06 14.2186 -1.98185e-05 15.562 0.18059C16.9386 0.36568 18.0309 0.75271 18.8891 1.61091C19.7473 2.46911 20.1343 3.56137 20.3194 4.93802C20.5 6.28144 20.5 8.0021 20.5 10.1928V10.3072C20.5 12.4979 20.5 14.2186 20.3194 15.562C20.1343 16.9386 19.7473 18.0309 18.8891 18.8891C18.0309 19.7473 16.9386 20.1343 15.562 20.3194C14.2186 20.5 12.4979 20.5 10.3072 20.5H10.1928C8.0021 20.5 6.28144 20.5 4.93802 20.3194C3.56137 20.1343 2.46911 19.7473 1.61091 18.8891C0.75272 18.0309 0.36568 16.9386 0.18059 15.562C-1.98185e-05 14.2186 -9.85119e-06 12.4979 1.4881e-07 10.3072V10.1928C-9.85119e-06 8.00212 -1.98185e-05 6.28144 0.18059 4.93802C0.36568 3.56137 0.75272 2.46911 1.61091 1.61091C2.46911 0.75271 3.56137 0.36568 4.93802 0.18059C6.28143 -1.98185e-05 8.0021 -9.85119e-06 10.1928 1.4881e-07H10.3072ZM14.75 10.25C14.75 12.7353 12.7353 14.75 10.25 14.75C7.76472 14.75 5.75 12.7353 5.75 10.25C5.75 7.76472 7.76472 5.75 10.25 5.75C12.7353 5.75 14.75 7.76472 14.75 10.25ZM15.7623 5.75C16.3121 5.75 16.7578 5.30229 16.7578 4.75C16.7578 4.19772 16.3121 3.75 15.7623 3.75H15.7533C15.2035 3.75 14.7578 4.19772 14.7578 4.75C14.7578 5.30228 15.2035 5.75 15.7533 5.75H15.7623Z" fill="white"/>
</svg>
