<svg width="21" height="21" viewBox="0 0 21 21" fill="none" xmlns="http://www.w3.org/2000/svg">
<path fill-rule="evenodd" clip-rule="evenodd" d="M10.1928 1.4881e-07H10.3072C12.4979 -9.85119e-06 14.2186 -1.98185e-05 15.562 0.18059C16.9386 0.36568 18.0309 0.75271 18.8891 1.61091C19.7473 2.46911 20.1343 3.56137 20.3194 4.93802C20.5 6.28144 20.5 8.00214 20.5 10.1928V10.3072C20.5 12.4979 20.5 14.2186 20.3194 15.562C20.1343 16.9386 19.7473 18.0309 18.8891 18.8891C18.0309 19.7473 16.9386 20.1343 15.562 20.3194C14.2186 20.5 12.4979 20.5 10.3072 20.5H10.1928C8.0021 20.5 6.28144 20.5 4.93802 20.3194C3.56137 20.1343 2.46911 19.7473 1.61091 18.8891C0.75272 18.0309 0.36568 16.9386 0.18059 15.562C-1.98185e-05 14.2186 -9.85119e-06 12.4979 1.4881e-07 10.3072V10.1928C-9.85119e-06 8.00211 -1.98185e-05 6.28144 0.18059 4.93802C0.36568 3.56137 0.75272 2.46911 1.61091 1.61091C2.46911 0.75271 3.56137 0.36568 4.93802 0.18059C6.28143 -1.98185e-05 8.00214 -9.85119e-06 10.1928 1.4881e-07ZM6.25195 8.75C6.25195 8.19771 5.80424 7.75 5.25195 7.75C4.69967 7.75 4.25195 8.19771 4.25195 8.75V15.25C4.25195 15.8023 4.69967 16.25 5.25195 16.25C5.80424 16.25 6.25195 15.8023 6.25195 15.25V8.75ZM9.252 7.25C9.6573 7.25 10.0064 7.4912 10.1634 7.83791C10.7713 7.465 11.4865 7.25 12.252 7.25C14.4611 7.25 16.252 9.0409 16.252 11.25V15.25C16.252 15.8023 15.8042 16.25 15.252 16.25C14.6997 16.25 14.252 15.8023 14.252 15.25V11.25C14.252 10.1454 13.3565 9.25 12.252 9.25C11.1474 9.25 10.252 10.1454 10.252 11.25V15.25C10.252 15.8023 9.8042 16.25 9.252 16.25C8.6997 16.25 8.252 15.8023 8.252 15.25V8.25C8.252 7.69771 8.6997 7.25 9.252 7.25ZM6.50977 5.25C6.50977 5.94036 5.95012 6.5 5.25977 6.5H5.25078C4.56043 6.5 4.00078 5.94036 4.00078 5.25C4.00078 4.55964 4.56043 4 5.25078 4H5.25977C5.95012 4 6.50977 4.55964 6.50977 5.25Z" fill="white"/>
</svg>
