<svg width="21" height="21" viewBox="0 0 21 21" fill="none" xmlns="http://www.w3.org/2000/svg">
<path fill-rule="evenodd" clip-rule="evenodd" d="M10.3072 1.4881e-07H10.1928C8.0021 -9.85119e-06 6.28143 -1.98185e-05 4.93802 0.18059C3.56137 0.36568 2.46911 0.75271 1.61091 1.61091C0.75272 2.46911 0.36568 3.56137 0.18059 4.93802C-1.98185e-05 6.28144 -9.85119e-06 8.00212 1.4881e-07 10.1928V10.3072C-9.85119e-06 12.4979 -1.98185e-05 14.2186 0.18059 15.562C0.36568 16.9386 0.75272 18.0309 1.61091 18.8891C2.46911 19.7473 3.56137 20.1343 4.93802 20.3194C6.28144 20.5 8.0021 20.5 10.1928 20.5H10.3072C12.4979 20.5 14.2186 20.5 15.562 20.3194C16.9386 20.1343 18.0309 19.7473 18.8891 18.8891C19.7473 18.0309 20.1343 16.9386 20.3194 15.562C20.5 14.2186 20.5 12.4979 20.5 10.3072V10.1928C20.5 8.0021 20.5 6.28144 20.3194 4.93802C20.1343 3.56137 19.7473 2.46911 18.8891 1.61091C18.0309 0.75271 16.9386 0.36568 15.562 0.18059C14.2186 -1.98185e-05 12.4979 -9.85119e-06 10.3072 1.4881e-07ZM10.1486 7.5C10.1486 5.98122 11.3719 4.75 12.8809 4.75C13.5738 4.75 14.2066 5.00963 14.6882 5.4375L16.385 5.18293C16.6362 5.14524 16.8286 5.39154 16.7181 5.60954L15.6079 7.80111C15.4504 12.218 11.8431 15.75 7.41621 15.75C6.14134 15.75 4.93445 15.4571 3.85835 14.9345C3.68108 14.8484 3.73317 14.5962 3.92867 14.5639C4.99276 14.3878 6.39158 13.9917 6.39158 13.3235C4.91412 11.8313 4.00078 9.4293 4.00078 7.15625C4.00078 6.50525 4.07569 5.87187 4.21732 5.26435C4.25695 5.09437 4.48847 5.0609 4.59121 5.20399C5.77357 6.85071 7.66961 8.1875 9.807 8.1875C9.9495 8.1875 10.0909 8.18288 10.2312 8.17377C10.1772 7.95817 10.1486 7.73245 10.1486 7.5Z" fill="white"/>
</svg>
