<svg width="60" height="60" viewBox="0 0 60 60" fill="none" xmlns="http://www.w3.org/2000/svg">
<path d="M32.676 16.472C31.1878 17.957 28.7759 17.957 27.2877 16.472C25.7999 14.987 25.7999 12.5792 27.2877 11.0942C28.7759 9.60922 31.1878 9.60922 32.676 11.0942C34.1637 12.5792 34.1637 14.987 32.676 16.472Z" fill="white"/>
<path d="M37.8813 22.2337C37.4172 22.2337 36.953 22.0565 36.5996 21.7017C35.8928 20.994 35.8942 19.8473 36.6019 19.141C38.0361 17.7096 38.8257 15.8067 38.8257 13.7829C38.8257 11.7591 38.0361 9.85622 36.6019 8.42479C35.8942 7.71801 35.8928 6.57177 36.5996 5.86361C37.3059 5.15591 38.4526 5.15453 39.1603 5.86132C41.2802 7.9771 42.4475 10.7901 42.4475 13.7829C42.4475 16.7753 41.2802 19.5887 39.1603 21.7045C38.8069 22.0574 38.3441 22.2337 37.8813 22.2337Z" fill="white"/>
<path d="M41.977 27.5648C41.5129 27.5648 41.0487 27.3876 40.6953 27.0333C39.9885 26.3251 39.9899 25.1789 40.6976 24.4721C43.5586 21.6166 45.1347 17.8204 45.1347 13.7824C45.1347 9.74451 43.5586 5.94828 40.6976 3.09276C39.9899 2.38597 39.9885 1.23974 40.6953 0.531578C41.4021 -0.176123 42.5483 -0.177497 43.256 0.529289C46.8028 4.06917 48.7565 8.77588 48.756 13.7824C48.756 18.789 46.8028 23.4962 43.256 27.036C42.9026 27.3885 42.4398 27.5648 41.977 27.5648Z" fill="white"/>
<path d="M22.0745 22.2338C21.6117 22.2338 21.1489 22.0576 20.795 21.7047C18.6751 19.5889 17.5078 16.7755 17.5078 13.7831C17.5078 10.7902 18.6751 7.97727 20.795 5.86149C21.5027 5.15471 22.6494 5.15562 23.3557 5.86378C24.0625 6.57148 24.0611 7.71818 23.3534 8.42496C21.9193 9.85639 21.1296 11.7593 21.1296 13.7831C21.1296 15.8068 21.9193 17.7098 23.3534 19.1412C24.0611 19.8475 24.0625 20.9942 23.3557 21.7019C23.0023 22.0562 22.5382 22.2338 22.0745 22.2338Z" fill="white"/>
<path d="M17.9787 27.565C17.5154 27.565 17.0526 27.3887 16.6992 27.0358C13.1525 23.4959 11.1992 18.7892 11.1992 13.7827C11.1992 8.77565 13.1525 4.06894 16.6992 0.52906C17.4069 -0.177268 18.5536 -0.176352 19.26 0.531807C19.9667 1.23951 19.9654 2.38575 19.2577 3.09253C16.3967 5.94805 14.8206 9.74428 14.8206 13.7822C14.8206 17.8201 16.3967 21.6168 19.2577 24.4723C19.9654 25.1791 19.9667 26.3254 19.26 27.0335C18.9066 27.3878 18.4424 27.565 17.9787 27.565Z" fill="white"/>
<path d="M53.8453 30.6953H6.11114C3.77151 30.6953 1.875 32.5918 1.875 34.931V55.7633C1.875 58.1029 3.77151 59.9994 6.11114 59.9994H53.8448C56.1844 59.9994 58.0809 58.1029 58.0809 55.7633V34.931C58.0809 32.5918 56.1844 30.6953 53.8453 30.6953ZM15.8052 54.5644H9.13328C8.13353 54.5644 7.32283 53.7537 7.32283 52.7535V37.9412C7.32283 36.9415 8.13353 36.1303 9.13328 36.1303C10.1335 36.1303 10.9442 36.941 10.9442 37.9412V50.9426H15.8052C16.8054 50.9426 17.6161 51.7533 17.6161 52.7535C17.6161 53.7537 16.8054 54.5644 15.8052 54.5644ZM23.2264 52.7535C23.2264 53.7537 22.4157 54.5644 21.4155 54.5644C20.4153 54.5644 19.6046 53.7537 19.6046 52.7535V37.9412C19.6046 36.9415 20.4153 36.1303 21.4155 36.1303C22.4157 36.1303 23.2264 36.941 23.2264 37.9412V52.7535ZM38.4626 38.4649L33.9907 53.2767C33.9903 53.2781 33.9898 53.2795 33.9893 53.2809C33.5037 54.9384 31.0276 54.8977 30.525 53.2809C30.5245 53.2795 30.5241 53.2781 30.5236 53.2767L26.0517 38.4649C25.7629 37.5073 26.3044 36.497 27.2621 36.2077C28.2188 35.9188 29.23 36.4604 29.5188 37.418L32.2572 46.4877L34.9955 37.418C35.2848 36.4604 36.2951 35.9184 37.2527 36.2077C38.2099 36.497 38.7519 37.5073 38.4626 38.4649ZM49.6032 42.604C50.6034 42.604 51.4141 43.4147 51.4141 44.4149C51.4141 45.4147 50.6034 46.2258 49.6032 46.2258H44.4643V50.9426H50.5787C51.5789 50.9426 52.3896 51.7533 52.3896 52.7535C52.3896 53.7537 51.5789 54.5644 50.5787 54.5644H42.6534C41.6532 54.5644 40.8425 53.7537 40.8425 52.7535V37.9412C40.8425 36.9415 41.6532 36.1303 42.6534 36.1303H50.8226C51.8224 36.1303 52.6336 36.941 52.6336 37.9412C52.6336 38.9414 51.8224 39.7521 50.8226 39.7521H44.4639V42.604H49.6032Z" fill="white"/>
</svg>
