<svg width="60" height="60" viewBox="0 0 60 60" fill="none" xmlns="http://www.w3.org/2000/svg">
<g clip-path="url(#clip0_56216_1936)">
<path d="M30.0009 60C41.5302 60 50.91 50.6202 50.91 39.0909C50.91 33.678 48.8422 28.7389 45.4554 25.022V15.4545C45.4554 6.93291 38.5225 0 30.0009 0C21.4793 0 14.5465 6.93291 14.5465 15.4545V25.0216C11.1596 28.7389 9.0918 33.678 9.0918 39.0909C9.0918 50.6202 18.4716 60 30.0009 60ZM32.7282 39.9975V43.6364C32.7282 45.1425 31.5071 46.3636 30.0009 46.3636C28.4947 46.3636 27.2736 45.1425 27.2736 43.6364V39.9975C26.1703 39.1675 25.4554 37.8476 25.4554 36.3636C25.4554 33.8573 27.4945 31.8182 30.0009 31.8182C32.5072 31.8182 34.5463 33.8573 34.5463 36.3636C34.5463 37.8476 33.8314 39.1675 32.7282 39.9975ZM20.0011 15.4545C20.0011 9.94055 24.4871 5.45455 30.0009 5.45455C35.5149 5.45455 40.0009 9.94055 40.0009 15.4545V20.7325C37.0285 19.1069 33.6209 18.1818 30.0009 18.1818C26.3811 18.1818 22.9734 19.1069 20.0011 20.7324V15.4545Z" fill="white"/>
</g>
<defs>
<clipPath id="clip0_56216_1936">
<rect width="60" height="60" fill="white"/>
</clipPath>
</defs>
</svg>
