<svg width="60" height="60" viewBox="0 0 60 60" fill="none" xmlns="http://www.w3.org/2000/svg">
<path fill-rule="evenodd" clip-rule="evenodd" d="M10.7655 14.1244L18.2761 21.6783C20.6315 19.5361 23.6093 18.2986 26.7886 18.1404L26.8202 7.48691C20.7956 7.64512 15.1436 9.98301 10.7655 14.1244ZM42.5948 26.5967L36.794 28.2455C36.9616 28.6803 37.0999 29.1291 37.2054 29.5896L42.8397 27.99C42.7167 27.5354 42.6347 27.0701 42.5948 26.5967ZM32.86 23.4291L36.8597 16.5982C36.3862 16.5068 35.921 16.3709 35.4675 16.1916L31.6261 22.7553C32.055 22.951 32.4675 23.176 32.86 23.4291ZM51.1237 37.6803L40.5757 35.885C39.9206 38.0014 38.7522 39.9385 37.1737 41.517C35.5858 43.1037 33.6382 44.2756 31.5077 44.9283L33.3018 55.474C37.612 54.4182 41.5401 52.2045 44.7007 49.0439C47.8542 45.8939 50.0643 41.9764 51.1237 37.6803ZM50.3925 26.9717C51.4167 26.9717 52.2511 26.1373 52.2511 25.1131C52.2511 24.0877 51.4167 23.2545 50.3925 23.2545C49.3671 23.2545 48.5339 24.0877 48.5339 25.1131C48.5339 26.1361 49.3671 26.9717 50.3925 26.9717ZM54.1847 31.1084C53.8214 29.6693 52.5124 28.6252 50.9972 28.6252H49.7866C48.2714 28.6252 46.9636 29.6693 46.5991 31.1084C48.8491 32.7584 51.937 32.7584 54.1847 31.1084ZM50.3925 21.8482C48.5913 21.8482 47.1276 23.3119 47.1276 25.1131C47.1276 26.0576 47.5319 26.9107 48.1753 27.5072C46.9729 27.949 45.9897 28.8713 45.4765 30.0549C44.5073 28.9018 43.9776 27.4592 43.9776 25.9346C43.9776 24.2213 44.6456 22.6111 45.8561 21.3994C47.1065 20.149 48.7495 19.5232 50.3925 19.5232C52.0343 19.5232 53.6772 20.149 54.9276 21.3994C57.2936 23.7666 57.419 27.5365 55.3073 30.0537C54.794 28.8713 53.8108 27.949 52.6085 27.5072C53.253 26.9107 53.6573 26.0576 53.6573 25.1131C53.6573 23.3119 52.1925 21.8482 50.3925 21.8482ZM42.1518 14.0928C41.7886 12.6537 40.4807 11.6107 38.9643 11.6107H37.7538C36.2386 11.6107 34.9307 12.6537 34.5663 14.0928C36.8139 15.7439 39.903 15.7439 42.1518 14.0928ZM38.3585 9.95605C39.3839 9.95605 40.2171 9.12168 40.2171 8.09746C40.2171 7.07207 39.3839 6.23887 38.3585 6.23887C37.3331 6.23887 36.4999 7.07207 36.4999 8.09746C36.4999 9.12051 37.3331 9.95605 38.3585 9.95605ZM40.5745 10.4916C41.219 9.89512 41.6233 9.04316 41.6233 8.09746C41.6233 6.29746 40.1585 4.83262 38.3585 4.83262C36.5585 4.83262 35.0936 6.29746 35.0936 8.09746C35.0936 9.04316 35.4979 9.89512 36.1425 10.4916C34.9401 10.9346 33.9569 11.8557 33.4436 13.0381C31.3307 10.5209 31.4561 6.75098 33.8233 4.38379C35.0737 3.1334 36.7167 2.50879 38.3585 2.50879C40.0014 2.50879 41.6432 3.1334 42.8936 4.38379C45.2597 6.75098 45.3862 10.5209 43.2733 13.0381C42.7612 11.8557 41.778 10.9346 40.5745 10.4916ZM30.4882 28.7928C30.6253 29.1561 30.4425 29.5615 30.0792 29.6986C29.7159 29.8357 29.3104 29.6541 29.1733 29.2908C28.9518 28.7072 28.2827 28.2994 27.5456 28.2994C26.6222 28.2994 25.8429 28.9393 25.8429 29.6963C25.8429 30.0947 26.0116 30.5775 26.4862 30.7404L27.7143 31.1611C27.7249 31.1646 27.7354 31.1693 27.746 31.1729L29.2483 31.7717C30.0534 32.0928 30.5339 32.9096 30.5339 33.9561C30.5339 35.265 29.5343 36.3666 28.1878 36.6736V37.7025C28.1878 38.0916 27.8725 38.4057 27.4847 38.4057C27.0968 38.4057 26.7815 38.0916 26.7815 37.7025V36.6971C25.7257 36.4955 24.8409 35.8088 24.4811 34.8596C24.3429 34.4975 24.5257 34.0908 24.889 33.9537C25.2522 33.8166 25.6577 33.9994 25.7948 34.3615C26.0163 34.9463 26.6854 35.3541 27.4225 35.3541C28.346 35.3541 29.1253 34.7143 29.1253 33.9561C29.1253 33.7873 29.0972 33.226 28.7257 33.0783L27.2386 32.4853L26.0268 32.0705C25.0589 31.7389 24.4331 30.8072 24.4331 29.6963C24.4331 28.3885 25.4327 27.2857 26.7792 26.9787V25.9498C26.7792 25.5619 27.0944 25.2467 27.4823 25.2467C27.8702 25.2467 28.1854 25.5619 28.1854 25.9498V26.9553C29.2436 27.1568 30.1284 27.8447 30.4882 28.7928ZM27.4847 23.265C32.2061 23.265 36.0475 27.1053 36.0475 31.8279C36.0475 36.5494 32.2061 40.3908 27.4847 40.3908C22.7632 40.3908 18.9218 36.5494 18.9218 31.8279C18.9218 27.1041 22.7632 23.265 27.4847 23.265ZM15.5292 25.1236C14.1452 27.5939 13.5546 30.4768 13.8604 33.3115C14.1956 36.4018 15.5925 39.3162 17.7944 41.5182C20.1956 43.9193 23.3374 45.3221 26.7054 45.5096L26.6737 56.1643C20.4745 55.9615 14.6725 53.4502 10.2675 49.0451C2.02098 40.7986 0.771763 28.0193 7.17606 18.383L15.5292 25.1236Z" fill="#F3F4F6"/>
</svg>
