<svg width="20" height="20" viewBox="0 0 20 20" fill="none" xmlns="http://www.w3.org/2000/svg">
<path d="M15.625 18.125C15.4592 18.125 15.3003 18.0592 15.1831 17.9419C15.0658 17.8247 15 17.6658 15 17.5V6.875C15 6.37772 14.8025 5.90081 14.4508 5.54917C14.0992 5.19754 13.6223 5 13.125 5H2.5C2.33424 5 2.17527 4.93415 2.05806 4.81694C1.94085 4.69973 1.875 4.54076 1.875 4.375C1.875 4.20924 1.94085 4.05027 2.05806 3.93306C2.17527 3.81585 2.33424 3.75 2.5 3.75H13.125C13.9535 3.75099 14.7478 4.08055 15.3336 4.66639C15.9194 5.25222 16.249 6.0465 16.25 6.875V17.5C16.25 17.6658 16.1842 17.8247 16.0669 17.9419C15.9497 18.0592 15.7908 18.125 15.625 18.125Z" fill="#22C55E"/>
<path d="M17.5 16.25H6.875C6.0465 16.249 5.25222 15.9194 4.66639 15.3336C4.08055 14.7478 3.75099 13.9535 3.75 13.125V2.5C3.75 2.33424 3.81585 2.17527 3.93306 2.05806C4.05027 1.94085 4.20924 1.875 4.375 1.875C4.54076 1.875 4.69973 1.94085 4.81694 2.05806C4.93415 2.17527 5 2.33424 5 2.5V13.125C5 13.6223 5.19754 14.0992 5.54917 14.4508C5.90081 14.8025 6.37772 15 6.875 15H17.5C17.6658 15 17.8247 15.0658 17.9419 15.1831C18.0592 15.3003 18.125 15.4592 18.125 15.625C18.125 15.7908 18.0592 15.9497 17.9419 16.0669C17.8247 16.1842 17.6658 16.25 17.5 16.25Z" fill="#22C55E"/>
<path d="M12.5 8.75C13.1904 8.75 13.75 8.19036 13.75 7.5C13.75 6.80964 13.1904 6.25 12.5 6.25C11.8096 6.25 11.25 6.80964 11.25 7.5C11.25 8.19036 11.8096 8.75 12.5 8.75Z" fill="#22C55E"/>
<path d="M14.6125 15.5996C14.5346 15.6175 14.4549 15.6259 14.375 15.6246H5.625C5.29378 15.6236 4.97642 15.4916 4.74221 15.2574C4.508 15.0232 4.37599 14.7058 4.375 14.3746V11.3184L6.20625 9.69337C6.5623 9.37397 7.02749 9.20363 7.50561 9.21759C7.98373 9.23155 8.43819 9.42874 8.775 9.76837L10.5438 11.5309L14.6125 15.5996Z" fill="#22C55E"/>
<path d="M15.625 12.8684V14.3746C15.6245 14.6645 15.5232 14.9453 15.3385 15.1687C15.1538 15.3922 14.8971 15.5445 14.6125 15.5996C14.5346 15.6175 14.4549 15.6259 14.375 15.6246H5.9375L10.5438 11.5309L11.2063 10.9434C11.5623 10.624 12.0275 10.4536 12.5056 10.4676C12.9837 10.4816 13.4382 10.6787 13.775 11.0184L15.625 12.8684Z" fill="#22C55E"/>
<path d="M15.625 12.8684V14.3746C15.6245 14.6645 15.5232 14.9453 15.3385 15.1687C15.1538 15.3922 14.8971 15.5445 14.6125 15.5996C14.5346 15.6175 14.4549 15.6259 14.375 15.6246H5.625C5.29378 15.6236 4.97642 15.4916 4.74221 15.2574C4.508 15.0232 4.37599 14.7058 4.375 14.3746V11.3184L6.20625 9.69337C6.5623 9.37397 7.02749 9.20363 7.50561 9.21759C7.98373 9.23155 8.43819 9.42874 8.775 9.76837L10.5438 11.5309L11.2063 10.9434C11.5623 10.624 12.0275 10.4536 12.5056 10.4676C12.9837 10.4816 13.4382 10.6787 13.775 11.0184L15.625 12.8684Z" fill="#22C55E"/>
</svg>
