<svg width="58" height="58" viewBox="0 0 58 58" fill="none" xmlns="http://www.w3.org/2000/svg">
<path d="M0 16C0 7.16345 7.16344 0 16 0H42C50.8366 0 58 7.16344 58 16V42C58 50.8366 50.8366 58 42 58H16C7.16345 58 0 50.8366 0 42V16Z" fill="#10B981" fill-opacity="0.1"/>
<path d="M16 0.5H42C50.5604 0.5 57.5 7.43959 57.5 16V42C57.5 50.5604 50.5604 57.5 42 57.5H16C7.43959 57.5 0.5 50.5604 0.5 42V16C0.500001 7.43959 7.43959 0.5 16 0.5Z" stroke="#10B981" stroke-opacity="0.2"/>
<path d="M28.9993 42.3337C36.3631 42.3337 42.3327 36.3641 42.3327 29.0003C42.3327 21.6365 36.3631 15.667 28.9993 15.667C21.6356 15.667 15.666 21.6365 15.666 29.0003C15.666 36.3641 21.6356 42.3337 28.9993 42.3337Z" stroke="#34D399" stroke-width="2" stroke-linecap="round" stroke-linejoin="round"/>
<path d="M26.334 23.667L34.334 29.0003L26.334 34.3337V23.667Z" stroke="#34D399" stroke-width="2" stroke-linecap="round" stroke-linejoin="round"/>
</svg>
