<svg width="58" height="58" viewBox="0 0 58 58" fill="none" xmlns="http://www.w3.org/2000/svg">
<path d="M0 16C0 7.16345 7.16344 0 16 0H42C50.8366 0 58 7.16344 58 16V42C58 50.8366 50.8366 58 42 58H16C7.16345 58 0 50.8366 0 42V16Z" fill="#EF4444" fill-opacity="0.1"/>
<path d="M16 0.5H42C50.5604 0.5 57.5 7.43959 57.5 16V42C57.5 50.5604 50.5604 57.5 42 57.5H16C7.43959 57.5 0.5 50.5604 0.5 42V16C0.500001 7.43959 7.43959 0.5 16 0.5Z" stroke="#EF4444" stroke-opacity="0.2"/>
<path d="M39.6673 30.3333C39.6673 36.9999 35.0007 40.3333 29.454 42.2666C29.1635 42.365 28.848 42.3603 28.5607 42.2533C23.0007 40.3333 18.334 36.9999 18.334 30.3333V20.9999C18.334 20.6463 18.4745 20.3072 18.7245 20.0571C18.9746 19.8071 19.3137 19.6666 19.6673 19.6666C22.334 19.6666 25.6673 18.0666 27.9873 16.0399C28.2698 15.7986 28.6291 15.666 29.0007 15.666C29.3722 15.666 29.7315 15.7986 30.014 16.0399C32.3473 18.0799 35.6673 19.6666 38.334 19.6666C38.6876 19.6666 39.0267 19.8071 39.2768 20.0571C39.5268 20.3072 39.6673 20.6463 39.6673 20.9999V30.3333Z" stroke="#F87171" stroke-width="2" stroke-linecap="round" stroke-linejoin="round"/>
<path d="M29 23.667V29.0003" stroke="#F87171" stroke-width="2" stroke-linecap="round" stroke-linejoin="round"/>
<path d="M29 34.333H29.0133" stroke="#F87171" stroke-width="2" stroke-linecap="round" stroke-linejoin="round"/>
</svg>
