<svg width="60" height="60" viewBox="0 0 60 60" fill="none" xmlns="http://www.w3.org/2000/svg">
<path d="M52.446 30.6H43.974C43.1262 30.6 42.2867 30.767 41.5034 31.0914C40.7201 31.4159 40.0084 31.8914 39.4089 32.4909C38.8094 33.0904 38.3339 33.8021 38.0094 34.5854C37.685 35.3687 37.518 36.2082 37.518 37.056C37.518 37.9038 37.685 38.7433 38.0094 39.5266C38.3339 40.3099 38.8094 41.0216 39.4089 41.6211C40.0084 42.2206 40.7201 42.6961 41.5034 43.0206C42.2867 43.345 43.1262 43.512 43.974 43.512H52.446C52.9065 43.4576 53.3283 43.2276 53.6233 42.8699C53.9184 42.5122 54.0641 42.0545 54.03 41.592V32.538C54.069 32.0726 53.9255 31.6102 53.63 31.2486C53.3344 30.887 52.9099 30.6544 52.446 30.6ZM43.962 39.6C43.4669 39.6 42.9829 39.4531 42.5713 39.1779C42.1598 38.9027 41.8391 38.5116 41.6499 38.0541C41.4607 37.5966 41.4115 37.0932 41.5085 36.6077C41.6055 36.1222 41.8444 35.6764 42.195 35.3267C42.5455 34.977 42.9918 34.7392 43.4776 34.6433C43.9633 34.5475 44.4666 34.5979 44.9236 34.7882C45.3807 34.9785 45.7711 35.3001 46.0453 35.7123C46.3195 36.1246 46.4652 36.6089 46.464 37.104C46.4624 37.7665 46.1981 38.4014 45.7291 38.8693C45.26 39.3372 44.6245 39.6 43.962 39.6ZM16.464 20.49C16.1728 22.6694 16.3178 24.885 16.8905 27.0079C17.4632 29.1308 18.4522 31.1187 19.8 32.856L19.872 32.952C19.9627 33.0694 20.079 33.1646 20.2121 33.2301C20.3453 33.2956 20.4916 33.3298 20.64 33.33C20.7398 33.3287 20.8389 33.3126 20.934 33.282C21.1214 33.22 21.2856 33.1024 21.4046 32.9449C21.5235 32.7873 21.5917 32.5973 21.6 32.4C21.6762 30.2271 22.2314 28.0978 23.2261 26.1644C24.2208 24.2311 25.6304 22.5413 27.354 21.216L33.516 16.464L36.732 20.664C36.8417 20.8083 36.9899 20.9189 37.1595 20.983C37.3291 21.0471 37.5133 21.0621 37.6911 21.0264C37.8688 20.9908 38.033 20.9058 38.1647 20.7812C38.2964 20.6566 38.3904 20.4975 38.436 20.322L39.27 17.184H48.462C49.3935 17.184 50.2869 17.5536 50.9461 18.2117C51.6053 18.8698 51.9764 19.7625 51.978 20.694V28.68H43.974C41.7462 28.68 39.6096 29.565 38.0343 31.1403C36.459 32.7156 35.574 34.8522 35.574 37.08C35.574 39.3078 36.459 41.4444 38.0343 43.0197C39.6096 44.595 41.7462 45.48 43.974 45.48H51.978V53.484C51.9764 54.416 51.6055 55.3094 50.9464 55.9684C50.2874 56.6275 49.394 56.9984 48.462 57H9.462C8.53938 56.9843 7.65978 56.6071 7.01237 55.9496C6.36495 55.2921 6.00144 54.4068 6 53.484V20.658C6.00159 19.7265 6.37273 18.8338 7.03193 18.1757C7.69114 17.5176 8.58454 17.148 9.516 17.148H17.244C16.8701 18.2323 16.6087 19.3522 16.464 20.49ZM19.578 16.518C20.569 14.3132 22.0877 12.3865 24 10.908L28.068 7.8C28.271 7.64274 28.4045 7.41234 28.44 7.158C28.4559 7.03181 28.4466 6.9037 28.4127 6.78113C28.3787 6.65856 28.3207 6.54396 28.242 6.444L25.626 3.036L41.034 3L37.086 17.892L34.476 14.508C34.3984 14.4066 34.3015 14.3216 34.1908 14.2579C34.0801 14.1942 33.958 14.1531 33.8313 14.1369C33.7046 14.1207 33.576 14.1298 33.4529 14.1636C33.3298 14.1975 33.2146 14.2554 33.114 14.334L26.184 19.674C22.9958 22.1322 20.8015 25.658 20.004 29.604C18.943 27.6124 18.3504 25.4049 18.2714 23.1497C18.1924 20.8945 18.629 18.651 19.548 16.59C19.5554 16.565 19.5655 16.5409 19.578 16.518Z" fill="white"/>
</svg>
